<svg width="28" height="26" viewBox="0 0 28 26" fill="none" xmlns="http://www.w3.org/2000/svg">
<path fill-rule="evenodd" clip-rule="evenodd" d="M1.90998 1.04548C1.79207 0.561338 1.31421 0.26699 0.842642 0.388038C0.371072 0.509086 0.084369 0.999692 0.202273 1.48384L1.43663 6.55244L2.58527 11.4729C3.07368 13.5651 3.45812 15.212 3.91432 16.4913C4.38228 17.8037 4.95613 18.8225 5.87684 19.6038C5.9563 19.6712 6.03725 19.7367 6.11963 19.8003C7.07424 20.5375 8.17301 20.873 9.52513 21.0343C10.8432 21.1916 12.4927 21.1916 14.5882 21.1916H15.2848C17.0979 21.1916 18.5252 21.1916 19.675 21.0722C20.8527 20.9499 21.8218 20.6962 22.6938 20.1356C23.1075 19.8697 23.4918 19.5585 23.8401 19.2075C24.6601 18.381 25.1467 17.3432 25.5655 15.9974C25.8736 15.0076 26.1606 13.7965 26.5059 12.3187L26.5917 11.9513C26.8465 10.8599 27.0565 9.96028 27.1376 9.2315C27.2219 8.47513 27.1875 7.75494 26.8197 7.09738C26.6624 6.81613 26.4658 6.56012 26.236 6.33753C25.6989 5.8171 25.0248 5.61494 24.2887 5.52273C23.5795 5.43388 22.6785 5.4339 21.5852 5.43393L2.9787 5.43393L1.90998 1.04548ZM4.28404 10.9958L3.40753 7.24115H21.5281C22.6928 7.24115 23.4856 7.24274 24.0755 7.31664C24.6509 7.38872 24.8868 7.51514 25.0279 7.65187C25.1323 7.75305 25.2217 7.86942 25.2932 7.99726C25.3898 8.17002 25.4546 8.43502 25.3888 9.02627C25.329 9.56347 25.1782 10.2465 24.9557 11.2043L16.3119 11.2043C15.8259 11.2043 15.4318 11.6089 15.4318 12.1079C15.4318 12.607 15.8259 13.0115 16.3119 13.0115L24.5316 13.0115C24.3685 13.6942 24.2199 14.2907 24.0731 14.8188H19.8325C19.3464 14.8188 18.9524 15.2233 18.9524 15.7224C18.9524 16.2214 19.3464 16.626 19.8325 16.626H23.4549C23.2049 17.1835 22.9348 17.5874 22.6069 17.9179C22.3495 18.1773 22.0654 18.4073 21.7597 18.6039C21.2033 18.9615 20.5312 19.1669 19.4979 19.2742C18.4469 19.3833 17.1084 19.3843 15.2366 19.3843H14.6443C12.4805 19.3843 10.9332 19.3829 9.72835 19.2392C8.54581 19.0981 7.78976 18.8287 7.17772 18.3561C7.11683 18.309 7.05699 18.2606 6.99827 18.2108C6.40796 17.7099 5.97658 17.0178 5.56731 15.8701C5.15034 14.7007 4.78835 13.1561 4.28404 10.9958Z" fill="black"/>
<path d="M12.1737 24.0926C12.1737 24.793 11.6207 25.3608 10.9385 25.3608C10.2562 25.3608 9.70318 24.793 9.70318 24.0926C9.70318 23.3922 10.2562 22.8244 10.9385 22.8244C11.6207 22.8244 12.1737 23.3922 12.1737 24.0926Z" fill="black"/>
<path d="M19.5854 24.0926C19.5854 24.793 19.0324 25.3608 18.3501 25.3608C17.6679 25.3608 17.1149 24.793 17.1149 24.0926C17.1149 23.3922 17.6679 22.8244 18.3501 22.8244C19.0324 22.8244 19.5854 23.3922 19.5854 24.0926Z" fill="black"/>
</svg>
