<svg width="36" height="42" viewBox="0 0 36 42" fill="none" xmlns="http://www.w3.org/2000/svg">
<path d="M33.8156 0H2.18433C1.50478 0 0.953857 0.550922 0.953857 1.23047V40.7695C0.953857 41.1959 1.17469 41.592 1.53743 41.8162C1.90025 42.0405 2.35323 42.0608 2.73467 41.8701L18 34.2375L33.2653 41.8701C33.439 41.9569 33.6275 42 33.8156 42C34.0405 42 34.2649 41.9383 34.4626 41.8162C34.8253 41.5921 35.0461 41.1959 35.0461 40.7695V1.23047C35.046 0.550922 34.495 0 33.8156 0ZM26.7667 15.765L23.2762 19.1674L24.0888 23.9048C24.109 23.9932 24.1196 24.0852 24.1196 24.1798C24.1196 24.8585 23.57 25.4089 22.8915 25.4102C22.8901 25.4102 22.8888 25.4102 22.8874 25.4102C22.6915 25.4102 22.495 25.3636 22.315 25.2689L18 23.0009L13.6851 25.2689C13.5051 25.3635 13.3085 25.4102 13.1127 25.4102C12.8576 25.4102 12.6037 25.331 12.3893 25.1752C12.0104 24.8998 11.8206 24.4333 11.8999 23.9717L12.7241 19.1675L9.23319 15.7651C8.89776 15.4382 8.77701 14.9491 8.9218 14.5037C9.06658 14.0582 9.45164 13.7335 9.91512 13.6662L14.7393 12.9652L16.8964 8.59384C17.1037 8.17384 17.5314 7.90789 17.9998 7.90789C18.4682 7.90789 18.896 8.17376 19.1032 8.59376L21.2607 12.9652L26.0846 13.6662C26.5481 13.7335 26.9332 14.0582 27.0779 14.5036C27.2228 14.949 27.1021 15.438 26.7667 15.765Z" fill="#DE6E45"/>
</svg>
