<svg width="51" height="46" viewBox="0 0 51 46" fill="none" xmlns="http://www.w3.org/2000/svg">
<path d="M18.0312 14.0264C18.0312 18.8663 20.3045 23.6318 24.0078 26.6521V30.4619H45.0254V26.6405C48.8337 23.4771 51.002 18.9203 51.002 14.0264V9.54395H18.0312V14.0264Z" fill="#DE6E45"/>
<path d="M32.9707 2.07324C30.499 2.07324 28.4883 4.08396 28.4883 6.55566H31.4766C31.4766 5.7313 32.1463 5.06152 32.9707 5.06152C35.4424 5.06152 37.4531 3.05081 37.4531 0.579102H34.4648C34.4648 1.40347 33.7951 2.07324 32.9707 2.07324Z" fill="#DE6E45"/>
<path d="M6.68279 42.2063C8.07922 41.5104 9.76481 42.2296 12.419 43.146C15.4132 44.1776 19.0186 45.4208 23.4572 45.4208C27.0495 45.4193 31.1891 44.6052 35.9882 42.2063L42.6695 38.8649C42.6695 38.8649 41.9863 37.4987 41.9788 37.4837C40.8633 35.2922 38.0681 34.534 35.7983 35.4799C30.7624 37.5787 26.4994 38.2272 23.218 38.2272C18.5794 38.2272 15.88 36.9826 15.6465 36.8703L16.935 34.1738C16.9981 34.2015 20.8846 35.9047 27.4839 34.7989C23.113 29.3339 16.1015 26.8386 9.35053 28.4526C3.91614 29.7444 0.835125 31.8132 0 32.1836L5.34623 42.8746L6.68279 42.2063Z" fill="#DE6E45"/>
<path d="M41.9355 5.06152C44.4073 5.06152 46.418 3.05081 46.418 0.579102H43.4297C43.4297 1.40347 42.7599 2.07324 41.9355 2.07324C39.4638 2.07324 37.4531 4.08396 37.4531 6.55566H40.4414C40.4414 5.7313 41.1112 5.06152 41.9355 5.06152Z" fill="#DE6E45"/>
</svg>
