<svg width="52" height="52" viewBox="0 0 52 52" fill="none" xmlns="http://www.w3.org/2000/svg">
<g clip-path="url(#clip0_238_195)">
<path d="M11.9823 26.3659L6.69596 31.6518C5.8201 32.5276 5.8201 33.9479 6.69596 34.8237C7.57182 35.6992 8.99203 35.6992 9.86789 34.8237L15.1538 29.5374C16.0297 28.6616 16.0297 27.2414 15.1538 26.3659C14.2779 25.49 12.8581 25.49 11.9823 26.3659Z" fill="#DE6E45"/>
<path d="M17.2674 31.6515L11.9811 36.9378C11.1053 37.8136 11.1053 39.2335 11.9811 40.1093C12.857 40.9852 14.2768 40.9852 15.1527 40.1093L20.439 34.8234C21.3148 33.9475 21.3148 32.5273 20.439 31.6515C19.5631 30.7756 18.1433 30.7756 17.2674 31.6515Z" fill="#DE6E45"/>
<path d="M22.5522 36.9381L17.2663 42.2245C16.3904 43.1003 16.3904 44.5201 17.2663 45.396C18.1421 46.2719 19.562 46.2719 20.4378 45.396L25.7241 40.1097C26.6 39.2338 26.6 37.814 25.7241 36.9381C24.8483 36.0623 23.4281 36.0623 22.5522 36.9381Z" fill="#DE6E45"/>
<path d="M24.6678 48.5674C25.5437 49.4432 26.9639 49.4432 27.8398 48.5674L31.0113 45.3958C31.8872 44.52 31.8872 43.1001 31.0113 42.2243C30.1355 41.3484 28.7156 41.3484 27.8398 42.2243L24.6678 45.3958C23.7924 46.2717 23.7924 47.6915 24.6678 48.5674Z" fill="#DE6E45"/>
<path d="M41.0551 16.3219L49.2592 24.5261C52.5156 19.3246 52.3712 12.2445 47.8464 7.7197L46.7892 6.66252C41.4877 1.36104 32.5229 1.59528 27.3109 6.80687L18.853 15.2647C18.2612 15.8565 18.2612 16.7869 18.853 17.3791C20.6927 19.2188 23.5896 19.4938 25.7463 18.0557L34.7116 12.0928C35.3034 11.501 36.2337 11.501 36.8259 12.0928C37.3123 12.5792 37.8831 12.9387 38.5387 13.129C40.0823 13.7002 41.9006 13.3616 43.1694 12.0928C43.7612 11.501 44.6916 11.501 45.2838 12.0928C45.876 12.6854 45.876 13.6153 45.2838 14.2075C44.0998 15.3916 42.5776 16.1102 41.0551 16.3219Z" fill="#DE6E45"/>
<path d="M7.12401 7.76457L5.00965 9.87893C-0.245526 15.1341 -1.30271 22.597 3.95208 27.8518L5.10926 29.0086L9.86678 24.2511C11.9068 22.211 15.227 22.211 17.2674 24.2511C18.3028 25.2869 18.8071 26.6526 18.7915 28.0133C20.1522 27.9973 21.5176 28.5016 22.5534 29.5374C22.7257 29.7098 33.5493 40.5333 33.1256 40.1096C34.0014 40.9855 35.4217 40.9855 36.2975 40.1096C37.1734 39.2338 37.1734 37.8135 36.2975 36.9381L26.2537 26.8942C25.6697 26.3106 25.6697 25.3639 26.2537 24.7799C26.8377 24.1958 27.7844 24.1958 28.3681 24.7799L38.4119 34.8237C39.2877 35.6992 40.708 35.6992 41.5834 34.8237C42.4593 33.9475 42.4593 32.5276 41.5834 31.6518L31.54 21.6083C30.956 21.0243 30.956 20.0776 31.54 19.4936C32.124 18.9095 33.0707 18.9099 33.6544 19.4936L43.6982 29.5374C44.574 30.4133 45.9939 30.4133 46.8697 29.5374C47.7456 28.6615 47.7456 27.2413 46.8697 26.3659L35.5983 15.0944L27.4027 20.5457C23.9934 22.8192 19.4511 22.2064 16.7387 19.494C14.9838 17.7387 14.9838 14.9053 16.7387 13.1505L24.0327 5.85642C18.7499 1.63781 12.0169 2.87164 7.12401 7.76457Z" fill="#DE6E45"/>
</g>
<defs>
<clipPath id="clip0_238_195">
<rect width="51" height="51" fill="white" transform="translate(0.5 0.5)"/>
</clipPath>
</defs>
</svg>
