<svg width="91" height="92" viewBox="0 0 91 92" fill="none" xmlns="http://www.w3.org/2000/svg">
<path d="M26.7775 23.5282L25.7245 20.0977L26.8808 19.1285L27 19.2707C26.8304 19.4129 26.7315 19.5255 26.7034 19.6085C26.6757 19.687 26.6665 19.7647 26.6759 19.8418C26.6853 19.9189 26.805 20.0946 27.035 20.3691L28.5593 22.1878C28.7579 22.4248 28.8977 22.5689 28.9787 22.6199C29.0601 22.6664 29.1516 22.6767 29.2533 22.651C29.3574 22.6232 29.4855 22.5455 29.6377 22.418L29.7538 22.5565L28.0959 23.9459L27.9799 23.8074C28.1845 23.636 28.2903 23.4835 28.2974 23.3501C28.3025 23.2143 28.1827 23.0004 27.938 22.7085L26.2099 20.6465L27.3999 24.5293L27.2689 24.639L23.6314 22.8074L25.3596 24.8694C25.5582 25.1065 25.6993 25.2494 25.7828 25.2984C25.8642 25.3448 25.9557 25.3552 26.0573 25.3295C26.159 25.3038 26.2859 25.2272 26.4381 25.0996L26.5541 25.2381L25.2443 26.3358L25.1282 26.1974C25.3503 26.0113 25.459 25.8522 25.4545 25.7201C25.4479 25.5854 25.3264 25.3772 25.0901 25.0953L23.5659 23.2765C23.3421 23.0096 23.1967 22.8639 23.1295 22.8395C23.0602 22.8126 22.9812 22.8045 22.8925 22.8151C22.8017 22.8233 22.6677 22.9016 22.4905 23.0501L22.3714 22.9079L23.5764 21.8979L26.7775 23.5282Z" fill="white"/>
<path d="M32.651 20.5829C32.4017 21.1067 32.2372 21.4197 32.1576 21.522C32.0375 21.674 31.8888 21.7948 31.7117 21.8844C31.4357 22.024 31.1599 22.045 30.8843 21.9473C30.6116 21.8481 30.3974 21.6446 30.2416 21.3367C30.1432 21.1421 30.1015 20.9516 30.1167 20.7652C30.1358 20.5074 30.248 20.2172 30.4532 19.8945C30.6613 19.5703 31.0449 19.1099 31.604 18.5133L31.5247 18.3565C31.3233 17.9585 31.1213 17.7178 30.9186 17.6344C30.7187 17.5494 30.4982 17.5679 30.2572 17.6899C30.0742 17.7825 29.9539 17.9053 29.8964 18.0585C29.836 18.2131 29.8381 18.3543 29.9028 18.4821L30.0393 18.7304C30.1069 18.864 30.1243 18.9847 30.0913 19.0926C30.0612 19.199 29.991 19.2801 29.8806 19.336C29.7731 19.3904 29.6654 19.3974 29.5575 19.3572C29.4525 19.3154 29.3669 19.2292 29.3008 19.0985C29.1744 18.8487 29.1861 18.5546 29.3359 18.2161C29.4858 17.8777 29.7916 17.5916 30.2534 17.358C30.6078 17.1787 30.9284 17.0913 31.2152 17.0958C31.4321 17.0991 31.6297 17.1761 31.808 17.3266C31.9235 17.4251 32.079 17.6675 32.2744 18.0538L32.9599 19.4088C33.1525 19.7893 33.278 20.0194 33.3366 20.0992C33.3938 20.1761 33.4457 20.221 33.4923 20.2339C33.5419 20.2453 33.5884 20.24 33.632 20.2179C33.6785 20.1944 33.714 20.1637 33.7385 20.1257C33.7804 20.0571 33.8444 19.8916 33.9305 19.6291L34.054 19.8731C33.9491 20.4734 33.7485 20.8485 33.4522 20.9984C33.3099 21.0704 33.1717 21.0783 33.0375 21.0222C32.9033 20.966 32.7745 20.8196 32.651 20.5829ZM32.5078 20.2997L31.7385 18.7791C31.388 19.1753 31.1673 19.442 31.0762 19.5793C30.9114 19.8232 30.8149 20.0398 30.7867 20.2292C30.7585 20.4186 30.7862 20.5961 30.87 20.7616C30.9758 20.9708 31.1264 21.1134 31.3219 21.1897C31.5158 21.263 31.6941 21.2585 31.8568 21.1762C32.0776 21.0645 32.2945 20.7724 32.5078 20.2997Z" fill="white"/>
<path d="M40.0554 18.9433L38.7814 19.2823C38.2318 18.812 37.7163 18.3176 37.2347 17.799C37.1224 17.6807 37.026 17.5969 36.9455 17.5475C36.8673 17.4942 36.7747 17.4818 36.6678 17.5103C36.63 17.5203 36.5711 17.5394 36.491 17.5674L36.7986 18.7235C36.8814 19.0349 36.9519 19.2301 37.0099 19.3089C37.0703 19.3838 37.1527 19.4276 37.2571 19.4402C37.3615 19.4529 37.5254 19.4295 37.7487 19.3701L37.7952 19.5446L35.634 20.1196L35.5876 19.9451C35.8676 19.8706 36.0335 19.7725 36.0853 19.6509C36.1364 19.5262 36.1146 19.2861 36.02 18.9306L35.4098 16.6374C35.3203 16.3008 35.2503 16.1072 35.1998 16.0566C35.1484 16.0029 35.0803 15.9621 34.9954 15.9342C34.9096 15.9031 34.7551 15.9172 34.5317 15.9767L34.484 15.7974L36.6452 15.2224L36.6929 15.4017C36.4318 15.4711 36.2748 15.5331 36.2219 15.5876C36.1722 15.6413 36.1297 15.7031 36.0944 15.7731C36.0583 15.84 36.0897 16.059 36.1884 16.4302L36.4144 17.2796C36.4884 17.2666 36.538 17.2568 36.5632 17.2501C36.7551 17.199 36.9202 17.0978 37.0584 16.9465C37.199 16.7912 37.2885 16.5198 37.3269 16.1324C37.3608 15.7663 37.4017 15.5146 37.4493 15.3772C37.5002 15.2391 37.5867 15.115 37.709 15.005C37.8337 14.891 37.9746 14.8131 38.1319 14.7712C38.3018 14.726 38.4479 14.7309 38.5703 14.7859C38.6928 14.8409 38.7716 14.9345 38.8067 15.0666C38.836 15.1767 38.8249 15.2807 38.7735 15.3786C38.7212 15.4734 38.6306 15.5379 38.5016 15.5722C38.4324 15.5906 38.3409 15.5948 38.2271 15.5846C38.0824 15.5726 37.9754 15.5758 37.9062 15.5942C37.7615 15.6327 37.675 15.7888 37.6468 16.0624C37.616 16.3771 37.5867 16.5836 37.559 16.682C37.5304 16.7772 37.4638 16.9128 37.359 17.0889C37.4641 17.0912 37.5887 17.1355 37.733 17.2218C37.8803 17.3072 38.1825 17.5822 38.6396 18.0467C39.0044 18.4178 39.2637 18.6453 39.4174 18.729C39.5742 18.812 39.7714 18.8252 40.009 18.7687L40.0554 18.9433Z" fill="white"/>
<path d="M43.6017 18.2074C43.1617 18.5855 42.8846 18.8052 42.7704 18.8665C42.5991 18.9569 42.4143 19.0072 42.216 19.0174C41.9071 19.0334 41.6465 18.941 41.434 18.7401C41.2248 18.5391 41.1112 18.2662 41.0934 17.9216C41.0821 17.7038 41.1211 17.5128 41.2104 17.3484C41.3322 17.1205 41.5523 16.9005 41.8705 16.6884C42.192 16.4762 42.7291 16.2105 43.4819 15.8912L43.4728 15.7156C43.4497 15.2703 43.3624 14.9684 43.2108 14.81C43.0624 14.6514 42.8533 14.5792 42.5835 14.5931C42.3787 14.6037 42.219 14.6674 42.1045 14.7841C41.9866 14.9011 41.9314 15.031 41.9388 15.1741L41.9632 15.4564C41.971 15.6059 41.9379 15.7234 41.8641 15.8087C41.7936 15.8938 41.6965 15.9396 41.573 15.946C41.4527 15.9522 41.3514 15.9151 41.269 15.8346C41.1898 15.7539 41.1465 15.6405 41.1389 15.4942C41.1244 15.2146 41.2542 14.9504 41.5281 14.7015C41.8021 14.4526 42.1975 14.3148 42.7144 14.2881C43.111 14.2676 43.4395 14.3174 43.7 14.4375C43.897 14.5284 44.0466 14.6787 44.1487 14.8886C44.2145 15.0253 44.2585 15.3099 44.2809 15.7423L44.3594 17.2588C44.3814 17.6847 44.4031 17.9459 44.4244 18.0426C44.4455 18.1361 44.4748 18.1981 44.5123 18.2288C44.553 18.2592 44.5977 18.2732 44.6464 18.2707C44.6985 18.268 44.7434 18.2543 44.7812 18.2295C44.8473 18.1837 44.9728 18.0582 45.1578 17.8531L45.1719 18.1262C44.833 18.6326 44.4978 18.8945 44.1662 18.9116C44.0069 18.9199 43.8773 18.8712 43.7773 18.7655C43.6773 18.6599 43.6188 18.4738 43.6017 18.2074ZM43.5853 17.8905L43.4973 16.1886C43.0165 16.4091 42.7067 16.5637 42.5678 16.6523C42.3184 16.8087 42.1425 16.9677 42.04 17.1295C41.9376 17.2912 41.8912 17.4648 41.9007 17.6501C41.9129 17.8841 41.9928 18.0756 42.1407 18.2244C42.2884 18.3699 42.4533 18.438 42.6353 18.4286C42.8824 18.4158 43.1991 18.2364 43.5853 17.8905Z" fill="white"/>
<path d="M46.9138 14.9757L48.3607 14.6407L48.544 14.6696L48.381 15.7017C48.6708 15.3487 48.9419 15.1131 49.1946 14.9948C49.451 14.8738 49.7062 14.8334 49.9602 14.8735C50.4039 14.9436 50.7463 15.1756 50.9873 15.5695C51.2836 16.0514 51.3779 16.6331 51.2702 17.3147C51.1499 18.0768 50.8317 18.6725 50.3157 19.1018C49.8911 19.4533 49.4055 19.5859 48.8589 19.4995C48.621 19.462 48.4205 19.3957 48.2576 19.3008C48.1366 19.2322 48.0071 19.1129 47.8692 18.9428L47.6567 20.2885C47.609 20.5907 47.5964 20.7848 47.6191 20.8708C47.6445 20.9605 47.6984 21.0365 47.7808 21.099C47.8664 21.1619 48.0298 21.2125 48.271 21.2505L48.2428 21.429L45.9277 21.0634L45.9559 20.8849L46.0765 20.904C46.2528 20.9351 46.4093 20.9252 46.5458 20.8743C46.6125 20.8486 46.6683 20.7981 46.7131 20.7228C46.7607 20.6512 46.8099 20.4546 46.8606 20.1331L47.5202 15.9563C47.5654 15.6702 47.5812 15.4865 47.5677 15.4052C47.5542 15.324 47.5215 15.2595 47.4697 15.2118C47.4212 15.1646 47.3486 15.1334 47.2522 15.1181C47.175 15.1059 47.0734 15.113 46.9473 15.1392L46.9138 14.9757ZM48.3361 15.9863L48.0756 17.6358C48.0192 17.9927 47.9966 18.2297 48.0078 18.3468C48.0234 18.5404 48.1068 18.7216 48.2581 18.8905C48.4126 19.0599 48.6233 19.1657 48.8901 19.2079C49.2117 19.2586 49.4919 19.1744 49.7309 18.9551C50.0431 18.6682 50.2462 18.2274 50.3402 17.6325C50.4468 16.9573 50.3809 16.4147 50.1424 16.0046C49.9763 15.7213 49.7517 15.5573 49.4688 15.5127C49.3144 15.4883 49.1556 15.5027 48.9923 15.556C48.8674 15.5956 48.6487 15.7391 48.3361 15.9863Z" fill="white"/>
<path d="M55.6666 16.644C56.2991 16.8857 56.7151 17.32 56.9147 17.9468C57.0832 18.4816 57.0658 19.0151 56.8625 19.5472C56.7196 19.9213 56.4852 20.2656 56.1594 20.5802C55.8336 20.8948 55.4754 21.0889 55.0848 21.1627C54.6972 21.2377 54.3104 21.2014 53.9242 21.0538C53.2947 20.8133 52.8904 20.3713 52.7111 19.7279C52.5594 19.1855 52.584 18.6513 52.785 18.1253C52.9314 17.7421 53.1709 17.398 53.5035 17.093C53.8403 16.7861 54.1981 16.6022 54.5768 16.5413C54.9566 16.4773 55.3199 16.5116 55.6666 16.644ZM55.4119 16.8865C55.2507 16.8249 55.0694 16.8114 54.8681 16.846C54.6709 16.8787 54.4762 16.996 54.2841 17.1978C54.092 17.3997 53.9239 17.6892 53.7798 18.0663C53.5474 18.6744 53.4671 19.2449 53.5389 19.7776C53.6137 20.3114 53.8488 20.6539 54.2441 20.8049C54.539 20.9176 54.8288 20.8889 55.1133 20.7188C55.3978 20.5488 55.6533 20.1673 55.8799 19.5743C56.1634 18.8323 56.2268 18.1875 56.0702 17.6398C55.9658 17.2654 55.7464 17.0143 55.4119 16.8865Z" fill="white"/>
<path d="M59.5015 21.0793L61.115 22.145L61.637 21.3546C61.7931 21.1183 61.885 20.9585 61.9126 20.8753C61.942 20.7894 61.9348 20.6969 61.8911 20.5978C61.8518 20.4978 61.7371 20.3849 61.547 20.2594L61.6493 20.1045L63.4542 21.2967L63.3519 21.4515C63.1835 21.3403 63.0474 21.2776 62.9435 21.2636C62.8423 21.2514 62.7539 21.273 62.6783 21.3284C62.6045 21.3811 62.4815 21.5378 62.3093 21.7986L61.0014 23.7787C60.8454 24.015 60.7517 24.1775 60.7205 24.2661C60.692 24.3565 60.701 24.4522 60.7475 24.5531C60.7957 24.6513 60.9095 24.7596 61.0888 24.878L60.9892 25.0288L59.1843 23.8366L59.2838 23.6859C59.5093 23.8348 59.687 23.8936 59.8168 23.8624C59.9485 23.8284 60.1193 23.6525 60.3292 23.3347L60.94 22.4098L59.3266 21.3442L58.7157 22.2691C58.5597 22.5054 58.466 22.6678 58.4348 22.7564C58.4063 22.8468 58.4153 22.9425 58.4618 23.0434C58.51 23.1416 58.6238 23.2499 58.8031 23.3683L58.7035 23.5191L56.8986 22.327L56.9981 22.1762C57.2399 22.3359 57.4234 22.3947 57.5487 22.3526C57.6758 22.3078 57.8408 22.132 58.0435 21.825L59.3513 19.8449C59.5074 19.6086 59.5997 19.4452 59.6282 19.3548C59.6594 19.2662 59.6509 19.1728 59.6026 19.0746C59.5543 18.9764 59.4406 18.8681 59.2613 18.7497L59.3636 18.5949L61.1685 19.787L61.0662 19.9418C60.8978 19.8306 60.7617 19.768 60.6578 19.754C60.5566 19.7418 60.4682 19.7634 60.3926 19.8188C60.3188 19.8714 60.1958 20.0282 60.0236 20.2889L59.5015 21.0793Z" fill="white"/>
<path d="M64.5906 25.2918L65.9198 26.6961L66.6077 26.045C66.8134 25.8503 66.9392 25.7156 66.985 25.6409C67.0331 25.5639 67.0472 25.4722 67.0271 25.3657C67.0116 25.2593 66.9255 25.1234 66.7689 24.9579L66.9036 24.8304L68.3906 26.4014L68.2558 26.5289C68.1171 26.3823 67.9987 26.2904 67.9007 26.2532C67.805 26.2183 67.714 26.2193 67.6278 26.2561C67.5439 26.2906 67.3885 26.4153 67.1616 26.6301L65.4381 28.2613C65.2324 28.456 65.1043 28.593 65.0538 28.6722C65.0055 28.7537 64.9925 28.8489 65.0148 28.9578C65.0395 29.0644 65.1257 29.1957 65.2734 29.3517L65.1422 29.4759L63.6553 27.9049L63.7865 27.7808C63.9722 27.977 64.1319 28.0746 64.2655 28.0737C64.4014 28.0705 64.6077 27.938 64.8843 27.6762L65.6893 26.9143L64.3601 25.51L63.5551 26.2719C63.3494 26.4666 63.2213 26.6035 63.1708 26.6827C63.1225 26.7643 63.1095 26.8595 63.1318 26.9683C63.1566 27.0749 63.2427 27.2063 63.3904 27.3623L63.2592 27.4865L61.7723 25.9155L61.9035 25.7913C62.1027 26.0017 62.268 26.1007 62.3996 26.0882C62.5336 26.0734 62.7341 25.9396 63.0013 25.6868L64.7247 24.0555C64.9304 23.8608 65.0574 23.7227 65.1057 23.6412C65.1562 23.562 65.1692 23.4691 65.1445 23.3625C65.1198 23.2559 65.0336 23.1245 64.8859 22.9685L65.0206 22.841L66.5076 24.4119L66.3728 24.5395C66.2341 24.3929 66.1157 24.301 66.0177 24.2638C65.922 24.2289 65.831 24.2298 65.7448 24.2666C65.6609 24.3012 65.5055 24.4258 65.2786 24.6407L64.5906 25.2918Z" fill="white"/>
<path d="M67.6108 32.4815C67.0706 32.2698 66.7467 32.1279 66.6391 32.0557C66.479 31.9467 66.348 31.8069 66.246 31.6365C66.0873 31.3712 66.0468 31.0976 66.1248 30.8157C66.2044 30.5367 66.3923 30.3086 66.6884 30.1315C66.8755 30.0195 67.0626 29.9645 67.2496 29.9664C67.5081 29.9672 67.8056 30.0586 68.142 30.2405C68.48 30.4251 68.9664 30.7752 69.6011 31.2907L69.7519 31.2005C70.1346 30.9715 70.3604 30.7529 70.4294 30.5448C70.4999 30.3394 70.4659 30.1208 70.3272 29.889C70.2219 29.713 70.0908 29.6017 69.934 29.5552C69.7755 29.5059 69.6348 29.518 69.5119 29.5915L69.2739 29.7453C69.1454 29.8222 69.0262 29.848 68.9162 29.8227C68.808 29.8003 68.7221 29.736 68.6586 29.6298C68.5967 29.5265 68.5821 29.4195 68.6146 29.309C68.6488 29.2013 68.7287 29.1099 68.8544 29.0347C69.0947 28.8909 69.3889 28.8818 69.7371 29.0073C70.0853 29.1328 70.3922 29.4176 70.658 29.8618C70.8619 30.2026 70.9717 30.5162 70.9876 30.8026C70.9996 31.0192 70.9368 31.2218 70.7992 31.4103C70.7092 31.5324 70.4784 31.7046 70.1069 31.9269L68.8038 32.7066C68.4378 32.9255 68.2171 33.0671 68.1417 33.1312C68.069 33.1936 68.0279 33.2485 68.0184 33.296C68.0105 33.3462 68.0191 33.3923 68.0442 33.4342C68.0709 33.4789 68.1041 33.5121 68.1437 33.5339C68.2151 33.5709 68.3848 33.623 68.6527 33.6903L68.418 33.8307C67.8118 33.7686 67.4235 33.595 67.253 33.3101C67.1711 33.1732 67.1534 33.0359 67.1999 32.898C67.2464 32.7602 67.3834 32.6214 67.6108 32.4815ZM67.8831 32.3186L69.3455 31.4436C68.9255 31.1221 68.6438 30.9208 68.5005 30.8397C68.2455 30.6925 68.0226 30.6116 67.8317 30.5968C67.6408 30.5821 67.4657 30.6223 67.3065 30.7176C67.1054 30.8379 66.9737 30.9982 66.9115 31.1986C66.852 31.3973 66.8691 31.5748 66.9627 31.7312C67.0897 31.9435 67.3965 32.1393 67.8831 32.3186Z" fill="white"/>
<path d="M73.8621 37.8967L73.6866 37.957C73.6211 37.7661 73.5462 37.6335 73.4622 37.5591C73.3792 37.4878 73.2929 37.452 73.2033 37.4518C73.1138 37.4516 72.9289 37.4996 72.6488 37.5958L70.4044 38.3667C70.1366 38.4587 69.9638 38.5318 69.886 38.586C69.8113 38.6392 69.7622 38.7215 69.7385 38.8329C69.7158 38.9473 69.7373 39.1 69.8029 39.2909L69.632 39.3496L68.9293 37.3038L69.1002 37.2451C69.188 37.5006 69.2928 37.6557 69.4148 37.7101C69.5399 37.7636 69.7825 37.7284 70.1427 37.6047L71.0617 37.2891L70.992 37.1013C70.9825 37.0736 70.9671 37.0238 70.9459 36.9519L68.5709 36.2601L68.2093 35.2072L68.3801 35.1485C68.433 35.3025 68.4895 35.4018 68.5496 35.4466C68.6138 35.4933 68.7894 35.5586 69.0764 35.6425L70.8105 36.1518C70.8135 35.3591 71.0691 34.8755 71.5771 34.701C71.8634 34.6027 72.1546 34.6438 72.4506 34.8243C72.7508 35.0069 73.0061 35.4045 73.2166 36.0172L73.8621 37.8967ZM73.029 36.6134C73.0216 36.4817 72.9994 36.362 72.9624 36.2542C72.8556 35.9433 72.6988 35.7372 72.492 35.6362C72.2852 35.5351 72.0756 35.5211 71.8631 35.594C71.5922 35.6871 71.405 35.8736 71.3015 36.1535C71.198 36.4334 71.2034 36.7396 71.3176 37.0721C71.3292 37.106 71.3455 37.1434 71.3665 37.1844L73.029 36.6134Z" fill="white"/>
<path d="M70.8686 41.6802C70.8904 41.8316 70.8556 41.9666 70.7642 42.085C70.676 42.203 70.5578 42.2727 70.4095 42.2941C70.2613 42.3155 70.1264 42.2807 70.0047 42.1897C69.8868 42.1015 69.8171 41.9833 69.7957 41.8351C69.7743 41.6868 69.8075 41.5521 69.8952 41.4309C69.9867 41.3125 70.1065 41.2426 70.2547 41.2212C70.4061 41.1993 70.5408 41.2325 70.6588 41.3207C70.7773 41.4122 70.8472 41.532 70.8686 41.6802Z" fill="white"/>
<path d="M72.411 50.8935C71.7623 50.7513 71.2193 50.7999 70.7819 51.0392C70.3446 51.2785 70.0799 51.613 69.9879 52.0427C69.9266 52.3292 69.9515 52.5942 70.0625 52.8376C70.176 53.085 70.4084 53.3211 70.7597 53.5461L70.6326 53.6737C70.2108 53.5135 69.8545 53.2342 69.5636 52.8357C69.2759 52.4379 69.1838 51.9971 69.2873 51.5133C69.3997 50.9881 69.6998 50.5813 70.1877 50.2928C70.678 50.0083 71.2685 49.9399 71.9593 50.0878C72.7073 50.2478 73.2489 50.5635 73.5842 51.0347C73.9219 51.5098 74.0288 52.037 73.9048 52.6163C73.7999 53.1065 73.5514 53.4745 73.1593 53.7201C72.7703 53.9664 72.3053 54.0317 71.7642 53.9159L72.411 50.8935ZM72.6879 50.9528L72.2547 52.9772C72.5382 53.0213 72.7427 53.0301 72.8682 53.0037C73.0635 52.9622 73.2291 52.8728 73.365 52.7355C73.5002 52.6013 73.5863 52.4483 73.623 52.2764C73.6796 52.0122 73.6269 51.7529 73.4649 51.4985C73.3055 51.248 73.0465 51.0661 72.6879 50.9528Z" fill="white"/>
<path d="M72.236 57.2647L70.5928 60.8515L70.4241 60.7743C70.5163 60.573 70.5573 60.4289 70.547 60.3418C70.5384 60.2591 70.5133 60.1849 70.4717 60.1193C70.4301 60.0538 70.2466 59.9464 69.9211 59.7973L67.9101 58.876C67.4869 58.6821 67.2102 58.5984 67.08 58.6246C66.9514 58.6552 66.8217 58.8017 66.6908 59.064L65.399 58.4722L65.4763 58.3035C65.7244 58.4028 65.9637 58.4391 66.1944 58.4123C66.4238 58.3885 66.6195 58.2973 66.7816 58.1388C66.9437 57.9804 67.1109 57.7132 67.283 57.3374L67.763 56.2897C67.9121 55.9642 68.0006 55.6968 68.0284 55.4875C68.0533 55.2769 68.0024 55.0675 67.8759 54.8591C67.748 54.6537 67.5555 54.476 67.2984 54.326L67.3736 54.1618L68.6654 54.7535C68.5631 55.0003 68.5583 55.2648 68.651 55.5472C68.7436 55.8295 69.0232 56.1688 69.4897 56.5652C69.9562 56.9615 70.4484 57.2783 70.9663 57.5155C71.4754 57.7487 71.8423 57.6393 72.0673 57.1874L72.236 57.2647ZM71.498 58.1136L71.2538 58.0017C69.8008 57.336 68.8397 56.5771 68.3708 55.7249L67.6794 57.2343C67.5546 57.5065 67.505 57.6736 67.5304 57.7353C67.5588 57.7984 67.7194 57.8971 68.0124 58.0313L70.9245 59.3654L71.498 58.1136Z" fill="white"/>
<path d="M64.5545 62.6376C64.5489 62.0575 64.5594 61.704 64.586 61.5772C64.6273 61.388 64.7079 61.2142 64.8278 61.0559C65.0145 60.8094 65.2532 60.6696 65.5437 60.6365C65.8323 60.606 66.1141 60.6949 66.3891 60.9033C66.5629 61.035 66.6839 61.1879 66.7521 61.3621C66.848 61.6021 66.8745 61.9122 66.8316 62.2922C66.7868 62.6748 66.644 63.2568 66.4032 64.0382L66.5434 64.1443C66.8988 64.4136 67.186 64.5413 67.4048 64.5274C67.6217 64.5161 67.8117 64.4027 67.9748 64.1874C68.0986 64.0239 68.1528 63.8607 68.1373 63.6979C68.1238 63.5325 68.06 63.4065 67.9458 63.32L67.7142 63.1568C67.5948 63.0664 67.5263 62.9655 67.5086 62.854C67.4889 62.7452 67.5165 62.6415 67.5911 62.5429C67.6639 62.4469 67.7576 62.3933 67.8722 62.3822C67.9849 62.3736 68.0996 62.4135 68.2164 62.502C68.4395 62.671 68.558 62.9405 68.5718 63.3104C68.5857 63.6802 68.4363 64.0714 68.1238 64.484C67.884 64.8005 67.6342 65.0197 67.3745 65.1415C67.1781 65.2337 66.9667 65.2512 66.7404 65.1941C66.5935 65.1563 66.3475 65.0067 66.0024 64.7452L64.7919 63.8282C64.452 63.5707 64.2382 63.419 64.1506 63.373C64.0655 63.329 63.9992 63.3114 63.9516 63.3203C63.9021 63.3318 63.8626 63.357 63.8331 63.3959C63.8016 63.4374 63.7832 63.4806 63.7778 63.5255C63.7702 63.6055 63.7853 63.7824 63.8231 64.056L63.6051 63.8909C63.436 63.3054 63.4518 62.8804 63.6523 62.6157C63.7486 62.4886 63.8694 62.4208 64.0146 62.4124C64.1598 62.4039 64.3398 62.479 64.5545 62.6376ZM64.8075 62.8293L66.1658 63.8583C66.307 63.3486 66.3883 63.012 66.41 62.8487C66.4511 62.5573 66.4428 62.3202 66.3851 62.1377C66.3274 61.9551 66.2246 61.8078 66.0767 61.6958C65.8898 61.5542 65.6919 61.4921 65.4828 61.5093C65.2764 61.5285 65.1181 61.6107 65.008 61.756C64.8586 61.9532 64.7918 62.311 64.8075 62.8293Z" fill="white"/>
<path d="M58.1337 69.0735L57.6164 71.9842C57.7503 72.1962 57.8799 72.3217 58.0054 72.3607C58.1309 72.3996 58.2867 72.3655 58.473 72.2584L58.5679 72.4178L56.7807 73.482L56.6858 73.3226C56.8732 73.211 56.9874 73.1165 57.0284 73.039C57.0711 72.9643 57.0939 72.8882 57.097 72.8106C57.1 72.733 57.01 72.5404 56.8268 72.2327L55.6127 70.1938C55.4362 69.8973 55.315 69.7289 55.2493 69.6884C55.1852 69.6508 55.1077 69.6288 55.0167 69.6223C54.9246 69.6203 54.7807 69.6776 54.5849 69.7942L54.4925 69.639L56.351 68.5323L56.4435 68.6876C56.2113 68.8258 56.0811 68.9602 56.0527 69.0907C56.026 69.2241 56.1101 69.4544 56.3049 69.7816L57.3816 71.5898L57.8964 68.6749C57.7492 68.4405 57.6182 68.2968 57.5034 68.244C57.3886 68.1911 57.2283 68.2241 57.0224 68.3428L56.93 68.1876L58.7047 67.1309L58.7971 67.2862C58.5482 67.4344 58.4154 67.5741 58.3987 67.7052C58.3838 67.8391 58.4704 68.0641 58.6586 68.3802L59.8726 70.4192C60.0508 70.7184 60.1711 70.8855 60.2335 70.9203C60.2976 70.9579 60.3743 70.9786 60.4636 70.9822C60.5546 70.9887 60.6994 70.9328 60.898 70.8145L60.9929 70.9739L59.1343 72.0806L59.0394 71.9212C59.2268 71.8096 59.341 71.7151 59.382 71.6376C59.4247 71.5629 59.4475 71.4868 59.4506 71.4092C59.4537 71.3316 59.3636 71.139 59.1804 70.8313L58.1337 69.0735Z" fill="white"/>
<path d="M45.4986 73.468C45.5286 72.8674 45.6933 72.3828 45.9927 72.0144C46.2925 71.6491 46.6532 71.4343 47.0747 71.3699C47.5767 71.2932 48.0466 71.4371 48.4842 71.8016C48.9219 72.1661 49.1956 72.7071 49.3052 73.4247C49.4115 74.1198 49.2918 74.716 48.9463 75.2133C48.5976 75.7112 48.1336 76.0043 47.5544 76.0928C47.12 76.1592 46.7451 76.098 46.4297 75.909C46.1149 75.7234 45.9385 75.5066 45.9007 75.2588C45.882 75.1366 45.907 75.0307 45.9756 74.9411C46.0415 74.8553 46.1453 74.8016 46.2869 74.78C46.4767 74.751 46.6292 74.7902 46.7445 74.8978C46.8095 74.957 46.8662 75.08 46.9145 75.2669C46.9596 75.4543 47.0461 75.5893 47.1739 75.6718C47.3013 75.7512 47.4648 75.7756 47.6643 75.7451C47.986 75.6959 48.2269 75.5373 48.3868 75.2692C48.5993 74.914 48.6659 74.4774 48.5867 73.9593C48.5061 73.4316 48.3061 72.9846 47.9867 72.6185C47.6646 72.2561 47.2831 72.1086 46.8423 72.176C46.5269 72.2242 46.2602 72.3752 46.0422 72.6292C45.8878 72.8042 45.7567 73.0992 45.6489 73.5142L45.4986 73.468Z" fill="white"/>
<path d="M42.8113 76.1796L38.8187 75.953L38.8292 75.7677C39.0502 75.7803 39.1994 75.7659 39.2767 75.7247C39.3506 75.6865 39.4105 75.6361 39.4564 75.5735C39.5024 75.5109 39.5355 75.3008 39.5558 74.9433L39.6903 72.5741C39.7098 72.2296 39.7037 72.0222 39.6718 71.9519C39.6397 71.8849 39.5878 71.8233 39.516 71.767C39.4408 71.7139 39.2894 71.6808 39.0619 71.6679L39.0721 71.4875L41.3829 71.6187L41.3726 71.7991C41.1224 71.7849 40.9494 71.7881 40.8537 71.8087C40.7547 71.8292 40.6748 71.8866 40.614 71.981C40.5531 72.0786 40.5133 72.2915 40.4946 72.6198L40.3187 75.7202L41.8055 75.8046L41.9123 73.9229C41.9527 73.2112 42.0136 72.7125 42.0951 72.4269C42.173 72.1445 42.3102 71.9387 42.5067 71.8096C42.6997 71.6836 42.9164 71.6275 43.1569 71.6411C43.5729 71.6647 43.7711 71.8488 43.7516 72.1933C43.7449 72.3103 43.707 72.4043 43.6378 72.4754C43.5653 72.5463 43.4754 72.5787 43.3681 72.5726C43.2544 72.5661 43.1514 72.513 43.0593 72.4132C42.9396 72.2825 42.8472 72.2153 42.7822 72.2116C42.6359 72.2033 42.5234 72.3192 42.4446 72.5593C42.3623 72.8024 42.3037 73.2311 42.2689 73.8453L42.213 74.8301C42.1842 75.3371 42.204 75.6479 42.2725 75.7627C42.3377 75.8772 42.5208 75.9545 42.8218 75.9944L42.8113 76.1796Z" fill="white"/>
<path d="M35.4436 71.0807C35.9795 70.8585 36.3112 70.7361 36.4388 70.7134C36.6298 70.6809 36.8211 70.6906 37.0127 70.7427C37.3111 70.8237 37.53 70.9927 37.6694 71.2498C37.8056 71.506 37.8285 71.8006 37.7381 72.1336C37.681 72.3441 37.5844 72.5135 37.4484 72.6418C37.2616 72.8205 36.984 72.961 36.6155 73.0634C36.2439 73.1649 35.6508 73.2502 34.836 73.3191L34.79 73.4887C34.6732 73.9191 34.6621 74.2332 34.7569 74.4309C34.8485 74.6278 35.0246 74.7616 35.2854 74.8324C35.4833 74.8861 35.6549 74.8754 35.8001 74.8001C35.9485 74.7257 36.0414 74.6194 36.0789 74.4811L36.1437 74.2053C36.1829 74.0608 36.2509 73.9595 36.3476 73.9014C36.4412 73.8425 36.5477 73.8292 36.667 73.8616C36.7833 73.8932 36.868 73.96 36.9212 74.0621C36.9713 74.1634 36.9772 74.2848 36.9388 74.4261C36.8655 74.6963 36.6599 74.907 36.322 75.0581C35.9842 75.2093 35.5655 75.2171 35.066 75.0815C34.6827 74.9775 34.3861 74.8278 34.176 74.6325C34.0171 74.4848 33.9218 74.2953 33.8901 74.0641C33.8702 73.9137 33.917 73.6296 34.0304 73.2117L34.4281 71.7462C34.5398 71.3347 34.6006 71.0796 34.6105 70.9811C34.6195 70.8858 34.611 70.8177 34.585 70.7769C34.5558 70.7352 34.5177 70.708 34.4705 70.6952C34.4203 70.6816 34.3733 70.6806 34.3296 70.6924C34.2526 70.7153 34.0942 70.7955 33.8546 70.9328L33.9262 70.6689C34.4059 70.2932 34.806 70.1488 35.1265 70.2358C35.2804 70.2775 35.3884 70.3642 35.4506 70.4957C35.5127 70.6273 35.5103 70.8223 35.4436 71.0807ZM35.3604 71.387L34.914 73.0316C35.4396 72.9719 35.7821 72.9215 35.9417 72.8805C36.2274 72.8096 36.4441 72.7133 36.5918 72.5915C36.7396 72.4697 36.8377 72.3193 36.8863 72.1402C36.9477 71.914 36.9314 71.7072 36.8372 71.5197C36.7422 71.3354 36.6067 71.2194 36.4308 71.1716C36.192 71.1068 35.8352 71.1786 35.3604 71.387Z" fill="white"/>
<path d="M30.2497 73.0964L26.7571 71.2613L26.8434 71.0971C27.0394 71.2 27.1811 71.2487 27.2686 71.2432C27.3517 71.2391 27.4271 71.218 27.4948 71.1801C27.5626 71.1421 27.6797 70.9647 27.8462 70.6477L28.8751 68.6896C29.0916 68.2775 29.1903 68.0058 29.1711 67.8743C29.1475 67.7443 29.0083 67.6068 28.7535 67.4619L29.4144 66.204L29.5786 66.2903C29.466 66.5327 29.4168 66.7698 29.4311 67.0016C29.4425 67.2319 29.5229 67.4322 29.6723 67.6027C29.8218 67.7731 30.0795 67.9545 30.4455 68.1468L31.4656 68.6828C31.7825 68.8493 32.0448 68.9522 32.2522 68.9913C32.4611 69.0276 32.673 68.9881 32.888 68.8731C33.1 68.7565 33.2878 68.5739 33.4516 68.3253L33.6115 68.4093L32.9506 69.6672C32.7098 69.5516 32.4459 69.5325 32.1589 69.6097C31.872 69.6869 31.518 69.9477 31.097 70.3921C30.676 70.8364 30.333 71.3108 30.068 71.815C29.8076 72.3107 29.8969 72.6831 30.336 72.9322L30.2497 73.0964ZM29.442 72.3135L29.567 72.0758C30.3104 70.6609 31.1203 69.7424 31.9966 69.3203L30.5269 68.5481C30.2618 68.4088 30.0977 68.3502 30.0347 68.3722C29.9701 68.3971 29.8629 68.5522 29.713 68.8375L28.2231 71.6731L29.442 72.3135Z" fill="white"/>
<path d="M23.0067 68.3813C22.49 67.9438 22.2413 67.3962 22.2606 66.7387C22.2787 66.1782 22.4718 65.6806 22.8399 65.2458C23.0986 64.9402 23.4337 64.693 23.8453 64.5041C24.257 64.3151 24.6593 64.2505 25.0522 64.3103C25.4428 64.3679 25.7958 64.5303 26.1113 64.7974C26.6256 65.2328 26.8607 65.7838 26.8168 66.4503C26.7803 67.0123 26.5801 67.5082 26.2162 67.938C25.9512 68.251 25.6113 68.4964 25.1964 68.674C24.777 68.8521 24.3785 68.9071 24.001 68.8391C23.6214 68.7737 23.29 68.621 23.0067 68.3813ZM23.3273 68.2368C23.459 68.3483 23.6256 68.4211 23.8271 68.4552C24.0239 68.4896 24.2464 68.4434 24.4946 68.3166C24.7427 68.1897 24.9972 67.9723 25.258 67.6642C25.6787 67.1673 25.9434 66.6557 26.0521 66.1293C26.1584 65.6008 26.05 65.1998 25.727 64.9263C25.486 64.7223 25.2032 64.6534 24.8784 64.7197C24.5536 64.7859 24.1861 65.0613 23.776 65.5457C23.2627 66.1519 22.9893 66.7393 22.9557 67.308C22.9302 67.6959 23.0541 68.0055 23.3273 68.2368Z" fill="white"/>
<path d="M19.9877 60.5388C20.5271 60.2727 21.0305 60.1808 21.4981 60.263C21.963 60.3471 22.3263 60.5577 22.5877 60.8946C22.899 61.2957 23.002 61.7762 22.8966 62.336C22.7912 62.8957 22.4517 63.3981 21.8782 63.8431C21.3227 64.2742 20.7437 64.4598 20.141 64.4001C19.5364 64.3377 19.0545 64.0751 18.6953 63.6122C18.4259 63.265 18.2969 62.9077 18.3085 62.5403C18.3175 62.1748 18.4209 61.9153 18.619 61.7616C18.7167 61.6858 18.8214 61.6561 18.933 61.6725C19.04 61.6883 19.1375 61.7528 19.2253 61.8659C19.343 62.0177 19.3829 62.17 19.3451 62.323C19.325 62.4086 19.2451 62.518 19.1053 62.6512C18.9636 62.7818 18.8878 62.9231 18.8779 63.0749C18.8706 63.2248 18.9288 63.3795 19.0525 63.5389C19.2521 63.7961 19.5079 63.9293 19.8199 63.9385C20.2336 63.9512 20.6475 63.7969 21.0615 63.4756C21.4833 63.1483 21.7764 62.7561 21.9407 62.2989C22.1006 61.8412 22.0438 61.4361 21.7704 61.0838C21.5748 60.8318 21.313 60.6723 20.9851 60.6054C20.757 60.5558 20.4355 60.5848 20.0205 60.6926L19.9877 60.5388Z" fill="white"/>
<path d="M16.541 59.9853L14.8534 56.5057L15.8577 55.8016L15.9536 55.9993C15.751 56.1409 15.6095 56.2819 15.5292 56.4222C15.4489 56.5624 15.4153 56.6945 15.4283 56.8184C15.4414 56.9423 15.5097 57.1317 15.6333 57.3865L15.8038 57.738L18.5979 56.3827C18.8967 56.2378 19.0785 56.1279 19.1435 56.053C19.2041 55.9766 19.2277 55.8909 19.2143 55.7962C19.2009 55.7014 19.1275 55.5054 18.9943 55.2082L19.1568 55.1294L20.218 57.3173L20.0554 57.3961C19.9132 57.1178 19.7804 56.9597 19.6571 56.9218C19.5324 56.881 19.2973 56.9444 18.9517 57.112L16.1575 58.4672L16.3322 58.8275C16.4544 59.0794 16.5536 59.2429 16.6299 59.3181C16.7032 59.3947 16.819 59.447 16.9774 59.4751C17.1314 59.5017 17.3442 59.4854 17.6157 59.426L17.7116 59.6237L16.541 59.9853Z" fill="white"/>
<path d="M16.7489 51.9014L14.1268 50.536C13.8844 50.6002 13.7258 50.6863 13.6511 50.7943C13.5764 50.9024 13.5622 51.0613 13.6086 51.2711L13.4281 51.3139L12.9481 49.29L13.1286 49.2472C13.179 49.4594 13.2349 49.5966 13.2965 49.659C13.355 49.7221 13.4208 49.7667 13.4939 49.7928C13.567 49.819 13.7778 49.7908 14.1262 49.7081L16.4352 49.1606C16.7709 49.0809 16.9679 49.0158 17.0262 48.9652C17.0813 48.9153 17.1255 48.848 17.1589 48.7631C17.1884 48.6758 17.1768 48.5213 17.1243 48.2996L17.3 48.2579L17.7992 50.3626L17.6234 50.4043C17.561 50.1414 17.4718 49.9769 17.3558 49.9108C17.2366 49.8454 16.9917 49.8566 16.6211 49.9445L14.5734 50.4301L17.2003 51.7943C17.468 51.7242 17.6443 51.6422 17.7291 51.5485C17.8139 51.4548 17.8305 51.2919 17.7789 51.06L17.9547 51.0183L18.4312 53.028L18.2555 53.0697C18.1886 52.7878 18.0951 52.6192 17.975 52.5641C17.8517 52.5097 17.6111 52.5249 17.2532 52.6098L14.9442 53.1574C14.6052 53.2378 14.4098 53.3025 14.3579 53.3516C14.3028 53.4015 14.2602 53.4685 14.2299 53.5526C14.1965 53.6374 14.2065 53.7923 14.2598 54.0172L14.0793 54.06L13.5802 51.9553L13.7607 51.9125C13.811 52.1247 13.867 52.262 13.9286 52.3243C13.9871 52.3874 14.0529 52.432 14.126 52.4582C14.1991 52.4843 14.4098 52.4561 14.7583 52.3735L16.7489 51.9014Z" fill="white"/>
<path d="M16.3892 45.9551C16.3838 45.8022 16.433 45.6719 16.5367 45.564C16.6372 45.4563 16.7623 45.3998 16.9119 45.3946C17.0616 45.3893 17.1919 45.4385 17.303 45.5421C17.4108 45.6426 17.4673 45.7676 17.4725 45.9173C17.4777 46.0669 17.4302 46.1973 17.3298 46.3082C17.2261 46.4161 17.0994 46.4726 16.9498 46.4779C16.7969 46.4832 16.6665 46.4357 16.5588 46.3352C16.451 46.2315 16.3944 46.1048 16.3892 45.9551Z" fill="white"/>
</svg>
