<svg width="47" height="46" viewBox="0 0 47 46" fill="none" xmlns="http://www.w3.org/2000/svg">
<g clip-path="url(#clip0_238_194)">
<path d="M19.457 25.6953C19.457 27.9246 21.2708 29.7383 23.5 29.7383C25.7292 29.7383 27.543 27.9246 27.543 25.6953C27.543 23.4661 25.7292 21.6523 23.5 21.6523C21.2708 21.6523 19.457 23.4661 19.457 25.6953Z" fill="#DE6E45"/>
<path d="M23.5 32.4336C19.0412 32.4336 15.4141 36.0607 15.4141 40.5195V46H31.5859V40.5195C31.5859 36.0607 27.9588 32.4336 23.5 32.4336Z" fill="#DE6E45"/>
<path d="M12.7188 28.3906C12.7188 26.1614 10.905 24.3477 8.67578 24.3477C6.44653 24.3477 4.63281 26.1614 4.63281 28.3906C4.63281 30.6199 6.44653 32.4336 8.67578 32.4336C10.905 32.4336 12.7188 30.6199 12.7188 28.3906Z" fill="#DE6E45"/>
<path d="M42.3672 28.3906C42.3672 26.1614 40.5535 24.3477 38.3242 24.3477C36.095 24.3477 34.2812 26.1614 34.2812 28.3906C34.2812 30.6199 36.095 32.4336 38.3242 32.4336C40.5535 32.4336 42.3672 30.6199 42.3672 28.3906Z" fill="#DE6E45"/>
<path d="M7.32812 0L5.27786 4.83366L0.5 5.50749L3.946 8.78082L3.15355 13.5664L7.32812 11.3845L11.5027 13.5664L10.7103 8.78082L14.0664 5.50749L9.42857 4.83366L7.32812 0Z" fill="#DE6E45"/>
<path d="M25.6004 4.83366L23.5 0L21.4497 4.83366L16.7617 5.50749L20.1179 8.78082L19.3254 13.5664L23.5 11.3845L27.6746 13.5664L26.8821 8.78082L30.2383 5.50749L25.6004 4.83366Z" fill="#DE6E45"/>
<path d="M39.6719 0L37.6216 4.83366L32.9336 5.50749L36.2897 8.78082L35.4973 13.5664L39.6719 11.3845L43.8465 13.5664L43.054 8.78082L46.5 5.50749L41.7723 4.83366L39.6719 0Z" fill="#DE6E45"/>
<path d="M38.3242 35.1289C36.5329 35.1289 34.8936 35.7301 33.5537 36.7156C34.0047 37.9028 34.2812 39.1761 34.2812 40.5195V46H46.5V43.2148C46.5 38.749 42.7901 35.1289 38.3242 35.1289Z" fill="#DE6E45"/>
<path d="M0.5 43.2148V46H12.7188V40.5195C12.7188 39.1761 12.9953 37.9028 13.4463 36.7156C12.1063 35.7301 10.467 35.1289 8.67578 35.1289C4.20992 35.1289 0.5 38.749 0.5 43.2148Z" fill="#DE6E45"/>
</g>
<defs>
<clipPath id="clip0_238_194">
<rect width="46" height="46" fill="white" transform="translate(0.5)"/>
</clipPath>
</defs>
</svg>
